<?xml version="1.0" encoding="utf-8"?>
<!-- Generator: Adobe Illustrator 26.2.1, SVG Export Plug-In . SVG Version: 6.00 Build 0)  -->
<svg version="1.1" id="Ebene_1" xmlns="http://www.w3.org/2000/svg" xmlns:xlink="http://www.w3.org/1999/xlink" x="0px" y="0px"
	 viewBox="0 0 250 250" style="enable-background:new 0 0 250 250;" xml:space="preserve">
<style type="text/css">
	.st0{fill:#098282;}
	.st1{fill:none;stroke:#FFFFFF;stroke-width:9;stroke-linecap:round;stroke-linejoin:round;}
	.st2{fill:#098282;stroke:#FFFFFF;stroke-width:9;stroke-linecap:round;stroke-linejoin:round;}
</style>
<g>
	<g>
		<rect class="st0" width="250" height="250"/>
	</g>
	<g>
		<path class="st1" d="M79.3,174H43.4V78.2h33h-33v47.3h50h-50V174H79.3z"/>
		<path class="st1" d="M146.9,164.2c-0.8,2-2,3.6-3.4,5.1c-1.4,1.4-3.1,2.6-5,3.4c-1.9,0.8-4,1.3-6.2,1.3h-12.9
			c-2.2,0-4.3-0.4-6.2-1.3c-1.9-0.8-3.6-2-5-3.4c-1.4-1.4-2.6-3.1-3.4-5.1c-0.8-2-1.3-4-1.3-6.3V92.3c0-2.2,0.4-4.3,1.3-6.3
			c0.8-2,2-3.7,3.4-5.2c1.4-1.5,3.1-2.6,5-3.5c1.9-0.8,4-1.3,6.2-1.3h12.9c2.2,0,4.3,0.4,6.2,1.3c1.9,0.8,3.6,2,5,3.5
			c1.4,1.5,2.6,3.2,3.4,5.2c0.8,2,1.3,4.1,1.3,6.3v7.9v-7.9c0-2.2-0.4-4.3-1.3-6.3c-0.8-2-2-3.7-3.4-5.2c-1.4-1.5-3.1-2.6-5-3.5
			c-1.9-0.8-4-1.3-6.2-1.3h-12.9c-2.2,0-4.3,0.4-6.2,1.3c-1.9,0.8-3.6,2-5,3.5c-1.4,1.5-2.6,3.2-3.4,5.2c-0.8,2-1.3,4.1-1.3,6.3V158
			c0,2.2,0.4,4.3,1.3,6.3c0.8,2,2,3.6,3.4,5.1c1.4,1.4,3.1,2.6,5,3.4c1.9,0.8,4,1.3,6.2,1.3h12.9c2.2,0,4.3-0.4,6.2-1.3
			c1.9-0.8,3.6-2,5-3.4C144.9,167.9,146.1,166.2,146.9,164.2"/>
		
			<rect x="32.3" y="114.7" transform="matrix(0.7072 -0.7071 0.7071 0.7072 -76.3609 67.7618)" class="st2" width="22.7" height="22.7"/>
		<path class="st2" d="M117.5,126.1c0,7.5-6.1,13.6-13.6,13.6c-7.5,0-13.6-6.1-13.6-13.6c0-7.5,6.1-13.6,13.6-13.6
			C111.5,112.5,117.5,118.6,117.5,126.1z"/>
		<g>
			<path class="st1" d="M146.9,164.2l27.7-85.9l30,95.7l-30-95.7"/>
			<polyline class="st1" points="219.4,124 235.4,140 219.4,156.1 			"/>
			<path class="st1" d="M154.7,140.1l77.1,0.1l-62.2-0.1"/>
		</g>
	</g>
</g>
</svg>
