<?xml version="1.0" encoding="iso-8859-1"?>
<!-- Generator: Adobe Illustrator 19.0.0, SVG Export Plug-In . SVG Version: 6.00 Build 0)  -->
<svg xmlns="http://www.w3.org/2000/svg" xmlns:xlink="http://www.w3.org/1999/xlink" version="1.1" id="Layer_1" x="0px" y="0px" viewBox="0 0 481.234 481.234" style="enable-background:new 0 0 481.234 481.234;" xml:space="preserve" width="512" height="512">
<g>
	<g>
		<circle style="fill:#FFC545;" cx="118.202" cy="78.014" r="22.353"/>
		<path style="opacity:0.08;" d="M121.598,96.972c-12.345,0-22.354-10.008-22.354-22.354c0-5.308,1.853-10.18,4.944-14.014    c-5.084,4.097-8.339,10.372-8.339,17.41c0,12.345,10.008,22.353,22.353,22.353c7.038,0,13.312-3.255,17.41-8.339    C131.779,95.118,126.906,96.972,121.598,96.972z"/>
	</g>
	<g>
		<circle style="fill:#FFC545;" cx="56.867" cy="166.592" r="22.354"/>
		<path style="opacity:0.08;" d="M60.263,185.549c-12.346,0-22.354-10.008-22.354-22.353c0-5.308,1.854-10.18,4.944-14.014    c-5.084,4.098-8.339,10.372-8.339,17.41c0,12.345,10.008,22.354,22.354,22.354c7.038,0,13.312-3.255,17.41-8.339    C70.443,183.696,65.571,185.549,60.263,185.549z"/>
	</g>
	<g>
		<circle style="fill:#FFC545;" cx="29.853" cy="333.295" r="22.354"/>
		<path style="opacity:0.08;" d="M33.249,352.253c-12.345,0-22.353-10.008-22.353-22.353c0-5.308,1.854-10.18,4.944-14.014    c-5.084,4.098-8.339,10.372-8.339,17.41c0,12.345,10.008,22.353,22.354,22.353c7.038,0,13.312-3.255,17.41-8.339    C43.43,350.4,38.557,352.253,33.249,352.253z"/>
	</g>
	<g>
		<circle style="fill:#FFC545;" cx="105.951" cy="403.221" r="22.353"/>
		<path style="opacity:0.08;" d="M109.347,422.179c-12.346,0-22.354-10.008-22.354-22.353c0-5.308,1.853-10.18,4.944-14.014    c-5.084,4.097-8.339,10.372-8.339,17.41c0,12.346,10.008,22.354,22.354,22.354c7.038,0,13.312-3.255,17.41-8.339    C119.527,420.325,114.655,422.179,109.347,422.179z"/>
	</g>
	<g>
		<circle style="fill:#FFC545;" cx="424.06" cy="401.88" r="22.354"/>
		<path style="opacity:0.08;" d="M427.456,420.838c-12.346,0-22.354-10.008-22.354-22.354c0-5.308,1.854-10.18,4.944-14.014    c-5.084,4.097-8.339,10.372-8.339,17.41c0,12.345,10.008,22.354,22.354,22.354c7.038,0,13.312-3.256,17.41-8.339    C437.636,418.984,432.764,420.838,427.456,420.838z"/>
	</g>
	<g>
		<circle style="fill:#FFC545;" cx="451.381" cy="300.629" r="22.354"/>
		<path style="opacity:0.08;" d="M454.777,319.587c-12.346,0-22.354-10.008-22.354-22.354c0-5.308,1.853-10.18,4.944-14.014    c-5.084,4.098-8.339,10.372-8.339,17.41c0,12.345,10.008,22.353,22.354,22.353c7.038,0,13.312-3.255,17.41-8.339    C464.957,317.733,460.084,319.587,454.777,319.587z"/>
	</g>
	<g>
		<circle style="fill:#FFC545;" cx="450.381" cy="169.132" r="22.354"/>
		<path style="opacity:0.08;" d="M453.777,188.09c-12.346,0-22.354-10.008-22.354-22.354c0-5.308,1.853-10.18,4.944-14.014    c-5.084,4.097-8.339,10.372-8.339,17.41c0,12.346,10.008,22.354,22.354,22.354c7.038,0,13.312-3.256,17.41-8.339    C463.957,186.237,459.084,188.09,453.777,188.09z"/>
	</g>
	<g>
		<circle style="fill:#FFC545;" cx="426.668" cy="87.618" r="22.353"/>
		<path style="opacity:0.08;" d="M430.064,106.576c-12.345,0-22.353-10.008-22.353-22.354c0-5.308,1.853-10.18,4.944-14.014    c-5.084,4.098-8.339,10.372-8.339,17.41c0,12.345,10.008,22.353,22.354,22.353c7.038,0,13.312-3.255,17.41-8.339    C440.244,104.722,435.371,106.576,430.064,106.576z"/>
	</g>
	<g>
		<path style="fill:#00B7CF;" d="M317.043,244.881c0,36.124-29.389,65.512-65.512,65.512s-65.512-29.389-65.512-65.512    s29.389-65.512,65.512-65.512S317.043,208.757,317.043,244.881z M212.363,244.881c0,21.597,17.57,39.168,39.168,39.168    s39.168-17.57,39.168-39.168s-17.57-39.168-39.168-39.168S212.363,223.283,212.363,244.881z"/>
		<path style="fill:#006375;" d="M229.031,118.808v20.416c-13.124,2.792-25.373,7.973-36.27,15.066l-14.467-14.467    c-3.745-3.745-9.818-3.745-13.563,0l-18.257,18.257c-3.745,3.745-3.745,9.818,0,13.563l14.467,14.467    c-7.094,10.897-12.275,23.146-15.066,36.27h-20.416c-5.297,0-9.591,4.294-9.591,9.59v25.819c0,5.297,4.294,9.591,9.591,9.591    h20.416c2.753,12.943,7.827,25.038,14.772,35.822l-14.172,14.172c-3.745,3.745-3.745,9.818,0,13.563l18.257,18.257    c3.745,3.745,9.818,3.745,13.563,0l14.019-14.019c11.009,7.244,23.413,12.531,36.717,15.361v19.674c0,5.297,4.294,9.59,9.591,9.59    h25.819c5.297,0,9.591-4.294,9.591-9.59v-19.674c13.304-2.83,25.708-8.117,36.717-15.361l14.019,14.019    c3.745,3.745,9.818,3.745,13.563,0l18.257-18.257c3.745-3.745,3.745-9.818,0-13.563l-14.172-14.172    c6.944-10.784,12.018-22.879,14.772-35.822h20.416c5.297,0,9.591-4.294,9.591-9.591v-25.819c0-5.297-4.294-9.59-9.591-9.59    h-20.416c-2.792-13.124-7.973-25.373-15.066-36.27l14.467-14.467c3.745-3.745,3.745-9.818,0-13.563l-18.257-18.257    c-3.745-3.745-9.818-3.745-13.563,0l-14.466,14.467c-10.897-7.094-23.146-12.275-36.27-15.066v-20.416    c0-5.297-4.294-9.591-9.591-9.591h-25.819C233.325,109.217,229.031,113.511,229.031,118.808z M314.551,244.881    c0,34.749-28.271,63.02-63.02,63.02s-63.02-28.271-63.02-63.02s28.27-63.02,63.02-63.02S314.551,210.131,314.551,244.881z"/>
	</g>
	<path d="M251.531,198.213c-25.732,0-46.667,20.935-46.667,46.667c0,25.733,20.935,46.668,46.667,46.668   c25.733,0,46.668-20.935,46.668-46.668C298.199,219.148,277.264,198.213,251.531,198.213z M251.531,276.548   c-17.462,0-31.667-14.206-31.667-31.668c0-17.461,14.206-31.667,31.667-31.667c17.462,0,31.668,14.206,31.668,31.667   C283.199,262.342,268.993,276.548,251.531,276.548z M251.531,174.36c-38.885,0-70.52,31.635-70.52,70.52   c0,38.885,31.635,70.52,70.52,70.52c38.885,0,70.52-31.635,70.52-70.52C322.051,205.996,290.415,174.36,251.531,174.36z    M251.531,300.4c-30.614,0-55.52-24.906-55.52-55.52s24.906-55.52,55.52-55.52c30.614,0,55.52,24.906,55.52,55.52   S282.145,300.4,251.531,300.4z M382.476,305.932c1.406,1.407,3.314,2.197,5.303,2.197h34.703   c3.335,12.843,15.026,22.354,28.898,22.354c16.461,0,29.853-13.392,29.853-29.854s-13.392-29.853-29.853-29.853   c-13.872,0-25.563,9.511-28.898,22.353h-31.597l-18.249-18.249h4.966c9.424,0,17.09-7.666,17.09-17.09v-25.819   c0-9.424-7.666-17.091-17.09-17.091h-14.509c-0.792-2.949-1.714-5.854-2.736-8.721l29.527-29.527h31.597   c3.335,12.843,15.026,22.354,28.898,22.354c16.461,0,29.853-13.392,29.853-29.854c0-16.461-13.392-29.853-29.853-29.853   c-13.872,0-25.563,9.511-28.898,22.353h-34.703c-1.989,0-3.897,0.79-5.303,2.197l-27.578,27.578c-0.737-1.404-1.493-2.8-2.29-4.177   l10.284-10.283c6.663-6.664,6.663-17.506,0-24.169l-18.257-18.257c-3.228-3.228-7.52-5.006-12.085-5.006   c-4.565,0-8.857,1.778-12.084,5.006l-10.283,10.283c-1.472-0.852-2.966-1.657-4.47-2.441l19.875-19.875H349.5   c1.989,0,3.897-0.79,5.303-2.197l25.173-25.173h17.793c3.335,12.843,15.026,22.353,28.898,22.353   c16.461,0,29.853-13.392,29.853-29.853s-13.392-29.854-29.853-29.854c-13.872,0-25.563,9.511-28.898,22.354H376.87   c-1.989,0-3.897,0.79-5.303,2.197l-25.173,25.173H321.48c-1.989,0-3.897,0.79-5.303,2.197l-26.252,26.252   c-2.761-0.975-5.557-1.857-8.395-2.619v-14.509c0-9.424-7.667-17.091-17.09-17.091h-25.819c-9.424,0-17.091,7.667-17.091,17.091   v1.017l-47.115-47.115c-1.406-1.407-3.314-2.197-5.303-2.197h-22.012c-3.335-12.843-15.027-22.354-28.898-22.354   c-16.461,0-29.853,13.392-29.853,29.854s13.392,29.853,29.853,29.853c13.872,0,25.563-9.511,28.898-22.353h18.906l49.587,49.586   c-7.543,2.471-14.805,5.706-21.712,9.704l-10.283-10.282c-3.228-3.229-7.52-5.006-12.086-5.006c-4.565,0-8.857,1.778-12.084,5.006   l-18.257,18.257c-6.663,6.663-6.664,17.505,0,24.169l9.514,9.514h-13.544l-25.172-25.173c-1.406-1.407-3.314-2.197-5.303-2.197   h-20.9c-3.335-12.843-15.026-22.353-28.898-22.353c-16.461,0-29.854,13.392-29.854,29.853s13.392,29.854,29.854,29.854   c13.872,0,25.563-9.51,28.898-22.354h17.794l25.172,25.173c1.406,1.407,3.314,2.197,5.303,2.197h10.456   c-1.778,4.37-3.295,8.845-4.524,13.419h-14.509c-9.424,0-17.091,7.667-17.091,17.091v25.819c0,9.424,7.667,17.09,17.091,17.09   h14.509c1.066,3.969,2.354,7.862,3.834,11.679l-11.866,11.866h-24.914c-1.989,0-3.897,0.79-5.303,2.197l-25.173,25.173H58.752   c-3.335-12.843-15.027-22.353-28.899-22.353C13.392,303.442,0,316.834,0,333.295s13.392,29.854,29.853,29.854   c13.872,0,25.563-9.511,28.899-22.354h20.899c1.989,0,3.897-0.79,5.303-2.197l25.173-25.173h24.914c1.989,0,3.897-0.79,5.303-2.197   l10.243-10.243c0.2,0.358,0.39,0.72,0.593,1.076l-10.009,10.009c-6.663,6.663-6.663,17.506,0.001,24.169l18.256,18.256   c3.228,3.229,7.52,5.006,12.085,5.006c4.565,0,8.857-1.778,12.085-5.006l9.814-9.815c2.572,1.505,5.199,2.893,7.866,4.188   l-46.85,46.85H134.85c-3.335-12.843-15.026-22.354-28.898-22.354c-16.461,0-29.854,13.392-29.854,29.854   s13.392,29.853,29.854,29.853c13.872,0,25.563-9.51,28.898-22.353h22.685c1.989,0,3.897-0.79,5.303-2.197l53.594-53.593   c1.688,0.539,3.384,1.053,5.1,1.514v13.767c0,9.424,7.667,17.09,17.091,17.09h25.819c9.424,0,17.09-7.667,17.09-17.09v-13.767   c2.242-0.603,4.458-1.281,6.653-2.016l25.385,25.386c1.406,1.407,3.314,2.197,5.303,2.197h24.914l25.173,25.172   c1.406,1.407,3.314,2.197,5.303,2.197h20.899c3.335,12.843,15.026,22.353,28.898,22.353c16.461,0,29.853-13.392,29.853-29.853   s-13.392-29.854-29.853-29.854c-13.872,0-25.563,9.51-28.898,22.354h-17.793l-25.173-25.172c-1.407-1.407-3.314-2.197-5.303-2.197   h-24.914l-18.812-18.812c2.193-1.101,4.355-2.271,6.483-3.515l9.814,9.814c3.228,3.229,7.52,5.006,12.085,5.006   c4.565,0,8.857-1.778,12.085-5.006l18.257-18.257c6.663-6.663,6.663-17.506,0-24.169l-10.009-10.009   c3.354-5.861,6.158-11.979,8.421-18.303L382.476,305.932z M451.381,285.775c8.19,0,14.853,6.663,14.853,14.853   s-6.663,14.854-14.853,14.854c-8.19,0-14.854-6.663-14.854-14.854S443.19,285.775,451.381,285.775z M450.381,154.279   c8.19,0,14.853,6.663,14.853,14.854c0,8.191-6.663,14.854-14.853,14.854c-8.19,0-14.854-6.663-14.854-14.854   C435.527,160.942,442.19,154.279,450.381,154.279z M426.668,72.764c8.19,0,14.853,6.663,14.853,14.854s-6.663,14.853-14.853,14.853   s-14.854-6.663-14.854-14.853S418.478,72.764,426.668,72.764z M118.202,92.867c-8.19,0-14.853-6.663-14.853-14.853   s6.663-14.854,14.853-14.854c8.19,0,14.853,6.663,14.853,14.854S126.393,92.867,118.202,92.867z M56.867,181.445   c-8.19,0-14.854-6.663-14.854-14.854c0-8.19,6.663-14.853,14.854-14.853c8.19,0,14.853,6.663,14.853,14.853   C71.721,174.782,65.058,181.445,56.867,181.445z M29.853,348.149c-8.19,0-14.853-6.663-14.853-14.854   c0-8.19,6.663-14.853,14.853-14.853c8.191,0,14.854,6.663,14.854,14.853C44.707,341.486,38.044,348.149,29.853,348.149z    M105.951,418.074c-8.19,0-14.854-6.663-14.854-14.853s6.663-14.854,14.854-14.854c8.19,0,14.853,6.663,14.853,14.854   S114.142,418.074,105.951,418.074z M424.06,387.026c8.19,0,14.853,6.663,14.853,14.854s-6.663,14.853-14.853,14.853   c-8.19,0-14.853-6.663-14.853-14.853S415.87,387.026,424.06,387.026z M349.851,265.82c-2.526,11.874-7.149,23.085-13.741,33.323   c-1.912,2.968-1.494,6.868,1.002,9.364l14.171,14.171c0.815,0.815,0.815,2.143,0.001,2.958l-18.257,18.256   c-0.506,0.506-1.084,0.612-1.479,0.612c-0.395,0-0.972-0.106-1.478-0.612l-14.019-14.019c-2.516-2.516-6.453-2.917-9.426-0.962   c-10.468,6.888-21.96,11.696-34.156,14.291c-3.463,0.737-5.939,3.795-5.939,7.336v19.674c0,1.153-0.938,2.09-2.09,2.09h-25.819   c-1.153,0-2.091-0.938-2.091-2.09v-19.674c0-3.54-2.476-6.599-5.939-7.336c-12.196-2.594-23.688-7.402-34.155-14.291   c-1.261-0.83-2.695-1.235-4.121-1.235c-1.936,0-3.857,0.748-5.306,2.197l-14.02,14.02c-0.506,0.506-1.083,0.612-1.478,0.612   c-0.394,0-0.972-0.106-1.478-0.612l-18.256-18.256c-0.815-0.815-0.815-2.143,0-2.958l14.172-14.171   c2.497-2.496,2.914-6.396,1.003-9.364c-6.592-10.236-11.215-21.448-13.741-33.323c-0.737-3.463-3.796-5.939-7.336-5.939h-20.417   c-1.153,0-2.091-0.938-2.091-2.09v-25.819c0-1.153,0.938-2.091,2.091-2.091h20.417c3.54,0,6.599-2.476,7.336-5.939   c2.559-12.033,7.275-23.384,14.016-33.739c1.934-2.97,1.524-6.889-0.982-9.395l-14.466-14.466c-0.815-0.815-0.815-2.142,0-2.957   l18.257-18.257c0.506-0.506,1.083-0.612,1.477-0.612c0.395,0,0.972,0.106,1.479,0.612l14.467,14.466   c2.506,2.506,6.424,2.917,9.395,0.982c10.354-6.741,21.706-11.456,33.738-14.016c3.463-0.737,5.939-3.795,5.939-7.336v-20.416   c0-1.153,0.938-2.091,2.091-2.091h25.819c1.153,0,2.09,0.938,2.09,2.091v20.416c0,3.541,2.476,6.599,5.939,7.336   c12.033,2.56,23.385,7.275,33.739,14.016c2.971,1.934,6.89,1.524,9.395-0.982l14.467-14.467c0.506-0.506,1.082-0.612,1.478-0.612   c0.395,0,0.972,0.106,1.479,0.612l18.257,18.257c0.815,0.815,0.815,2.142,0,2.956l-14.467,14.466   c-2.506,2.506-2.916,6.424-0.982,9.395c6.741,10.355,11.457,21.707,14.016,33.739c0.737,3.463,3.795,5.939,7.336,5.939h20.417   c1.153,0,2.09,0.938,2.09,2.091v25.819c0,1.153-0.938,2.09-2.09,2.09h-20.417C353.646,259.88,350.588,262.357,349.851,265.82z"/>
</g>















</svg>
